# xmcd
#
# Track frame offsets: 
#        150
#        21550
#        48078
#        73233
#        91389
#        123425
#        149464
#        186677
#        212658
#
# Disc length: 3226 seconds
#
# Revision: 2
# Processed by: cddbd v1.5.2PL0 Copyright (c) Steve Scherf et al.
# Submitted via: ExactAudioCopy v0.99pb5
#
DISCID=8e0c9809
DTITLE=Barry Harris Trio - The Last Time I Saw Paris
DYEAR=2001
DGENRE=Jazz
TTITLE0=Bag's Groove
TTITLE1=The Last Time I Saw Paris
TTITLE2=Dancing In The Dark
TTITLE3=I Wan To Be Happy
TTITLE4=Once In A While
TTITLE5=Tea For Two
TTITLE6='Round Midnight
TTITLE7=Oblivion
TTITLE8=Remember
EXTD=YEAR: 2000
EXTT0=
EXTT1=
EXTT2=
EXTT3=
EXTT4=
EXTT5=
EXTT6=
EXTT7=
EXTT8=
PLAYORDER=
